<?xml version="1.0" encoding="utf-8"?>
<!-- Generator: Adobe Illustrator 18.0.0, SVG Export Plug-In . SVG Version: 6.00 Build 0)  -->
<!DOCTYPE svg PUBLIC "-//W3C//DTD SVG 1.1//EN" "http://www.w3.org/Graphics/SVG/1.1/DTD/svg11.dtd">
<svg version="1.1" id="Layer_1" xmlns="http://www.w3.org/2000/svg" xmlns:xlink="http://www.w3.org/1999/xlink" x="0px" y="0px"
	 viewBox="0 0 1750 1750" enable-background="new 0 0 1750 1750" xml:space="preserve">
<g>
	<g>
		<rect fill="#C1D82F" width="100" height="100"/>
		<rect x="110" y="0" fill="#C1D82F" width="100" height="100"/>
		<rect y="110" fill="#C1D82F" width="100" height="100"/>
		<rect x="110" y="110" fill="#C1D82F" width="100" height="100"/>
		<rect x="220" fill="#C1D82F" width="100" height="100"/>
		<rect x="330" y="0" fill="#C1D82F" width="100" height="100"/>
		<rect x="220" y="110" fill="#C1D82F" width="100" height="100"/>
		<rect x="330" y="110" fill="#C1D82F" width="100" height="100"/>
		<rect y="220" fill="#C1D82F" width="100" height="100"/>
		<rect x="110" y="220" fill="#C1D82F" width="100" height="100"/>
		<rect y="330" fill="#C1D82F" width="100" height="100"/>
		<rect x="110" y="330" fill="#C1D82F" width="100" height="100"/>
		<rect x="220" y="220" fill="#C1D82F" width="100" height="100"/>
		<rect x="330" y="220" fill="#C1D82F" width="100" height="100"/>
		<rect x="220" y="330" fill="#C1D82F" width="100" height="100"/>
		<rect x="330" y="330" fill="#C1D82F" width="100" height="100"/>
	</g>
	<g>
		<rect y="440" fill="#C1D82F" width="100" height="100"/>
		<rect x="110" y="440" fill="#C1D82F" width="100" height="100"/>
		<rect y="550" fill="#C1D82F" width="100" height="100"/>
		<rect x="110" y="550" fill="#C1D82F" width="100" height="100"/>
		<rect x="220" y="440" fill="#C1D82F" width="100" height="100"/>
		<rect x="330" y="440" fill="#C1D82F" width="100" height="100"/>
		<rect x="220" y="550" fill="#C1D82F" width="100" height="100"/>
		<rect x="330" y="550" fill="#C1D82F" width="100" height="100"/>
		<rect y="660" fill="#C1D82F" width="100" height="100"/>
		<rect x="110" y="660" fill="#C1D82F" width="100" height="100"/>
		<rect y="770" fill="#C1D82F" width="100" height="100"/>
		<rect x="110" y="770" fill="#C1D82F" width="100" height="100"/>
		<rect x="220" y="660" fill="#C1D82F" width="100" height="100"/>
		<rect x="330" y="660" fill="#C1D82F" width="100" height="100"/>
		<rect x="220" y="770" fill="#C1D82F" width="100" height="100"/>
		<rect x="330" y="770" fill="#C1D82F" width="100" height="100"/>
	</g>
	<g>
		<rect x="440" y="0" fill="#C1D82F" width="100" height="100"/>
		<rect x="550" y="0" fill="#C1D82F" width="100" height="100"/>
		<rect x="440" y="110" fill="#C1D82F" width="100" height="100"/>
		<rect x="550" y="110" fill="#C1D82F" width="100" height="100"/>
		<rect x="660" y="0" fill="#C1D82F" width="100" height="100"/>
		<rect x="770" y="0" fill="#C1D82F" width="100" height="100"/>
		<rect x="660" y="110" fill="#C1D82F" width="100" height="100"/>
		<rect x="770" y="110" fill="#C1D82F" width="100" height="100"/>
		<rect x="440" y="220" fill="#C1D82F" width="100" height="100"/>
		<rect x="550" y="220" fill="#C1D82F" width="100" height="100"/>
		<rect x="440" y="330" fill="#C1D82F" width="100" height="100"/>
		<rect x="550" y="330" fill="#C1D82F" width="100" height="100"/>
		<rect x="660" y="220" fill="#C1D82F" width="100" height="100"/>
		<rect x="770" y="220" fill="#C1D82F" width="100" height="100"/>
		<rect x="660" y="330" fill="#C1D82F" width="100" height="100"/>
		<rect x="770" y="330" fill="#C1D82F" width="100" height="100"/>
	</g>
	<g>
		<rect x="440" y="440" fill="#C1D82F" width="100" height="100"/>
		<rect x="550" y="440" fill="#C1D82F" width="100" height="100"/>
		<rect x="440" y="550" fill="#C1D82F" width="100" height="100"/>
		<rect x="550" y="550" fill="#C1D82F" width="100" height="100"/>
		<rect x="660" y="440" fill="#C1D82F" width="100" height="100"/>
		<rect x="770" y="440" fill="#C1D82F" width="100" height="100"/>
		<rect x="660" y="550" fill="#C1D82F" width="100" height="100"/>
		<rect x="770" y="550" fill="#C1D82F" width="100" height="100"/>
		<rect x="440" y="660" fill="#C1D82F" width="100" height="100"/>
		<rect x="550" y="660" fill="#C1D82F" width="100" height="100"/>
		<rect x="440" y="770" fill="#C1D82F" width="100" height="100"/>
		<rect x="550" y="770" fill="#C1D82F" width="100" height="100"/>
		<rect x="660" y="660" fill="#C1D82F" width="100" height="100"/>
		<rect x="770" y="660" fill="#C1D82F" width="100" height="100"/>
		<rect x="660" y="770" fill="#C1D82F" width="100" height="100"/>
		<rect x="770" y="770" fill="#C1D82F" width="100" height="100"/>
	</g>
</g>
<g>
	<g>
		<rect x="880" y="0" fill="#C1D82F" width="100" height="100"/>
		<rect x="990" y="0" fill="#C1D82F" width="100" height="100"/>
		<rect x="880" y="110" fill="#C1D82F" width="100" height="100"/>
		<rect x="990" y="110" fill="#C1D82F" width="100" height="100"/>
		<rect x="1100" y="0" fill="#C1D82F" width="100" height="100"/>
		<rect x="1210" y="0" fill="#C1D82F" width="100" height="100"/>
		<rect x="1100" y="110" fill="#C1D82F" width="100" height="100"/>
		<rect x="1210" y="110" fill="#C1D82F" width="100" height="100"/>
		<rect x="880" y="220" fill="#C1D82F" width="100" height="100"/>
		<rect x="990" y="220" fill="#C1D82F" width="100" height="100"/>
		<rect x="880" y="330" fill="#C1D82F" width="100" height="100"/>
		<rect x="990" y="330" fill="#C1D82F" width="100" height="100"/>
		<rect x="1100" y="220" fill="#C1D82F" width="100" height="100"/>
		<rect x="1210" y="220" fill="#C1D82F" width="100" height="100"/>
		<rect x="1100" y="330" fill="#C1D82F" width="100" height="100"/>
		<rect x="1210" y="330" fill="#C1D82F" width="100" height="100"/>
	</g>
	<g>
		<rect x="880" y="440" fill="#C1D82F" width="100" height="100"/>
		<rect x="990" y="440" fill="#C1D82F" width="100" height="100"/>
		<rect x="880" y="550" fill="#C1D82F" width="100" height="100"/>
		<rect x="990" y="550" fill="#C1D82F" width="100" height="100"/>
		<rect x="1100" y="440" fill="#C1D82F" width="100" height="100"/>
		<rect x="1210" y="440" fill="#C1D82F" width="100" height="100"/>
		<rect x="1100" y="550" fill="#C1D82F" width="100" height="100"/>
		<rect x="1210" y="550" fill="#C1D82F" width="100" height="100"/>
		<rect x="880" y="660" fill="#C1D82F" width="100" height="100"/>
		<rect x="990" y="660" fill="#C1D82F" width="100" height="100"/>
		<rect x="880" y="770" fill="#C1D82F" width="100" height="100"/>
		<rect x="990" y="770" fill="#C1D82F" width="100" height="100"/>
		<rect x="1100" y="660" fill="#C1D82F" width="100" height="100"/>
		<rect x="1210" y="660" fill="#C1D82F" width="100" height="100"/>
		<rect x="1100" y="770" fill="#C1D82F" width="100" height="100"/>
		<rect x="1210" y="770" fill="#C1D82F" width="100" height="100"/>
	</g>
	<g>
		<rect x="1320" y="0" fill="#C1D82F" width="100" height="100"/>
		<rect x="1430" y="0" fill="#C1D82F" width="100" height="100"/>
		<rect x="1320" y="110" fill="#C1D82F" width="100" height="100"/>
		<rect x="1430" y="110" fill="#C1D82F" width="100" height="100"/>
		<rect x="1540" y="0" fill="#C1D82F" width="100" height="100"/>
		<rect x="1650" y="0" fill="#C1D82F" width="100" height="100"/>
		<rect x="1540" y="110" fill="#C1D82F" width="100" height="100"/>
		<rect x="1650" y="110" fill="#C1D82F" width="100" height="100"/>
		<rect x="1320" y="220" fill="#C1D82F" width="100" height="100"/>
		<rect x="1430" y="220" fill="#C1D82F" width="100" height="100"/>
		<rect x="1320" y="330" fill="#C1D82F" width="100" height="100"/>
		<rect x="1430" y="330" fill="#C1D82F" width="100" height="100"/>
		<rect x="1540" y="220" fill="#C1D82F" width="100" height="100"/>
		<rect x="1650" y="220" fill="#C1D82F" width="100" height="100"/>
		<rect x="1540" y="330" fill="#C1D82F" width="100" height="100"/>
		<rect x="1650" y="330" fill="#C1D82F" width="100" height="100"/>
	</g>
	<g>
		<rect x="1320" y="440" fill="#C1D82F" width="100" height="100"/>
		<rect x="1430" y="440" fill="#C1D82F" width="100" height="100"/>
		<rect x="1320" y="550" fill="#C1D82F" width="100" height="100"/>
		<rect x="1430" y="550" fill="#C1D82F" width="100" height="100"/>
		<rect x="1540" y="440" fill="#C1D82F" width="100" height="100"/>
		<rect x="1650" y="440" fill="#C1D82F" width="100" height="100"/>
		<rect x="1540" y="550" fill="#C1D82F" width="100" height="100"/>
		<rect x="1650" y="550" fill="#C1D82F" width="100" height="100"/>
		<rect x="1320" y="660" fill="#C1D82F" width="100" height="100"/>
		<rect x="1430" y="660" fill="#C1D82F" width="100" height="100"/>
		<rect x="1320" y="770" fill="#C1D82F" width="100" height="100"/>
		<rect x="1430" y="770" fill="#C1D82F" width="100" height="100"/>
		<rect x="1540" y="660" fill="#C1D82F" width="100" height="100"/>
		<rect x="1650" y="660" fill="#C1D82F" width="100" height="100"/>
		<rect x="1540" y="770" fill="#C1D82F" width="100" height="100"/>
		<rect x="1650" y="770" fill="#C1D82F" width="100" height="100"/>
	</g>
</g>
<g>
	<g>
		<rect y="880" fill="#C1D82F" width="100" height="100"/>
		<rect x="110" y="880" fill="#C1D82F" width="100" height="100"/>
		<rect y="990" fill="#C1D82F" width="100" height="100"/>
		<rect x="110" y="990" fill="#C1D82F" width="100" height="100"/>
		<rect x="220" y="880" fill="#C1D82F" width="100" height="100"/>
		<rect x="330" y="880" fill="#C1D82F" width="100" height="100"/>
		<rect x="220" y="990" fill="#C1D82F" width="100" height="100"/>
		<rect x="330" y="990" fill="#C1D82F" width="100" height="100"/>
		<rect y="1100" fill="#C1D82F" width="100" height="100"/>
		<rect x="110" y="1100" fill="#C1D82F" width="100" height="100"/>
		<rect y="1210" fill="#C1D82F" width="100" height="100"/>
		<rect x="110" y="1210" fill="#C1D82F" width="100" height="100"/>
		<rect x="220" y="1100" fill="#C1D82F" width="100" height="100"/>
		<rect x="330" y="1100" fill="#C1D82F" width="100" height="100"/>
		<rect x="220" y="1210" fill="#C1D82F" width="100" height="100"/>
		<rect x="330" y="1210" fill="#C1D82F" width="100" height="100"/>
	</g>
	<g>
		<rect y="1320" fill="#C1D82F" width="100" height="100"/>
		<rect x="110" y="1320" fill="#C1D82F" width="100" height="100"/>
		<rect y="1430" fill="#C1D82F" width="100" height="100"/>
		<rect x="110" y="1430" fill="#C1D82F" width="100" height="100"/>
		<rect x="220" y="1320" fill="#C1D82F" width="100" height="100"/>
		<rect x="330" y="1320" fill="#C1D82F" width="100" height="100"/>
		<rect x="220" y="1430" fill="#C1D82F" width="100" height="100"/>
		<rect x="330" y="1430" fill="#C1D82F" width="100" height="100"/>
		<rect y="1540" fill="#C1D82F" width="100" height="100"/>
		<rect x="110" y="1540" fill="#C1D82F" width="100" height="100"/>
		<rect y="1650" fill="#C1D82F" width="100" height="100"/>
		<rect x="110" y="1650" fill="#C1D82F" width="100" height="100"/>
		<rect x="220" y="1540" fill="#C1D82F" width="100" height="100"/>
		<rect x="330" y="1540" fill="#C1D82F" width="100" height="100"/>
		<rect x="220" y="1650" fill="#C1D82F" width="100" height="100"/>
		<rect x="330" y="1650" fill="#C1D82F" width="100" height="100"/>
	</g>
	<g>
		<rect x="440" y="880" fill="#C1D82F" width="100" height="100"/>
		<rect x="550" y="880" fill="#C1D82F" width="100" height="100"/>
		<rect x="440" y="990" fill="#C1D82F" width="100" height="100"/>
		<rect x="550" y="990" fill="#C1D82F" width="100" height="100"/>
		<rect x="660" y="880" fill="#C1D82F" width="100" height="100"/>
		<rect x="770" y="880" fill="#C1D82F" width="100" height="100"/>
		<rect x="660" y="990" fill="#C1D82F" width="100" height="100"/>
		<rect x="770" y="990" fill="#C1D82F" width="100" height="100"/>
		<rect x="440" y="1100" fill="#C1D82F" width="100" height="100"/>
		<rect x="550" y="1100" fill="#C1D82F" width="100" height="100"/>
		<rect x="440" y="1210" fill="#C1D82F" width="100" height="100"/>
		<rect x="550" y="1210" fill="#C1D82F" width="100" height="100"/>
		<rect x="660" y="1100" fill="#C1D82F" width="100" height="100"/>
		<rect x="770" y="1100" fill="#C1D82F" width="100" height="100"/>
		<rect x="660" y="1210" fill="#C1D82F" width="100" height="100"/>
		<rect x="770" y="1210" fill="#C1D82F" width="100" height="100"/>
	</g>
	<g>
		<rect x="440" y="1320" fill="#C1D82F" width="100" height="100"/>
		<rect x="550" y="1320" fill="#C1D82F" width="100" height="100"/>
		<rect x="440" y="1430" fill="#C1D82F" width="100" height="100"/>
		<rect x="550" y="1430" fill="#C1D82F" width="100" height="100"/>
		<rect x="660" y="1320" fill="#C1D82F" width="100" height="100"/>
		<rect x="770" y="1320" fill="#C1D82F" width="100" height="100"/>
		<rect x="660" y="1430" fill="#C1D82F" width="100" height="100"/>
		<rect x="770" y="1430" fill="#C1D82F" width="100" height="100"/>
		<rect x="440" y="1540" fill="#C1D82F" width="100" height="100"/>
		<rect x="550" y="1540" fill="#C1D82F" width="100" height="100"/>
		<rect x="440" y="1650" fill="#C1D82F" width="100" height="100"/>
		<rect x="550" y="1650" fill="#C1D82F" width="100" height="100"/>
		<rect x="660" y="1540" fill="#C1D82F" width="100" height="100"/>
		<rect x="770" y="1540" fill="#C1D82F" width="100" height="100"/>
		<rect x="660" y="1650" fill="#C1D82F" width="100" height="100"/>
		<rect x="770" y="1650" fill="#C1D82F" width="100" height="100"/>
	</g>
</g>
<g>
	<g>
		<rect x="880" y="880" fill="#C1D82F" width="100" height="100"/>
		<rect x="990" y="880" fill="#C1D82F" width="100" height="100"/>
		<rect x="880" y="990" fill="#C1D82F" width="100" height="100"/>
		<rect x="990" y="990" fill="#C1D82F" width="100" height="100"/>
		<rect x="1100" y="880" fill="#C1D82F" width="100" height="100"/>
		<rect x="1210" y="880" fill="#C1D82F" width="100" height="100"/>
		<rect x="1100" y="990" fill="#C1D82F" width="100" height="100"/>
		<rect x="1210" y="990" fill="#C1D82F" width="100" height="100"/>
		<rect x="880" y="1100" fill="#C1D82F" width="100" height="100"/>
		<rect x="990" y="1100" fill="#C1D82F" width="100" height="100"/>
		<rect x="880" y="1210" fill="#C1D82F" width="100" height="100"/>
		<rect x="990" y="1210" fill="#C1D82F" width="100" height="100"/>
		<rect x="1100" y="1100" fill="#C1D82F" width="100" height="100"/>
		<rect x="1210" y="1100" fill="#C1D82F" width="100" height="100"/>
		<rect x="1100" y="1210" fill="#C1D82F" width="100" height="100"/>
		<rect x="1210" y="1210" fill="#C1D82F" width="100" height="100"/>
	</g>
	<g>
		<rect x="880" y="1320" fill="#C1D82F" width="100" height="100"/>
		<rect x="990" y="1320" fill="#C1D82F" width="100" height="100"/>
		<rect x="880" y="1430" fill="#C1D82F" width="100" height="100"/>
		<rect x="990" y="1430" fill="#C1D82F" width="100" height="100"/>
		<rect x="1100" y="1320" fill="#C1D82F" width="100" height="100"/>
		<rect x="1210" y="1320" fill="#C1D82F" width="100" height="100"/>
		<rect x="1100" y="1430" fill="#C1D82F" width="100" height="100"/>
		<rect x="1210" y="1430" fill="#C1D82F" width="100" height="100"/>
		<rect x="880" y="1540" fill="#C1D82F" width="100" height="100"/>
		<rect x="990" y="1540" fill="#C1D82F" width="100" height="100"/>
		<rect x="880" y="1650" fill="#C1D82F" width="100" height="100"/>
		<rect x="990" y="1650" fill="#C1D82F" width="100" height="100"/>
		<rect x="1100" y="1540" fill="#C1D82F" width="100" height="100"/>
		<rect x="1210" y="1540" fill="#C1D82F" width="100" height="100"/>
		<rect x="1100" y="1650" fill="#C1D82F" width="100" height="100"/>
		<rect x="1210" y="1650" fill="#C1D82F" width="100" height="100"/>
	</g>
	<g>
		<rect x="1320" y="880" fill="#C1D82F" width="100" height="100"/>
		<rect x="1430" y="880" fill="#C1D82F" width="100" height="100"/>
		<rect x="1320" y="990" fill="#C1D82F" width="100" height="100"/>
		<rect x="1430" y="990" fill="#C1D82F" width="100" height="100"/>
		<rect x="1540" y="880" fill="#C1D82F" width="100" height="100"/>
		<rect x="1650" y="880" fill="#C1D82F" width="100" height="100"/>
		<rect x="1540" y="990" fill="#C1D82F" width="100" height="100"/>
		<rect x="1650" y="990" fill="#C1D82F" width="100" height="100"/>
		<rect x="1320" y="1100" fill="#C1D82F" width="100" height="100"/>
		<rect x="1430" y="1100" fill="#C1D82F" width="100" height="100"/>
		<rect x="1320" y="1210" fill="#C1D82F" width="100" height="100"/>
		<rect x="1430" y="1210" fill="#C1D82F" width="100" height="100"/>
		<rect x="1540" y="1100" fill="#C1D82F" width="100" height="100"/>
		<rect x="1650" y="1100" fill="#C1D82F" width="100" height="100"/>
		<rect x="1540" y="1210" fill="#C1D82F" width="100" height="100"/>
		<rect x="1650" y="1210" fill="#C1D82F" width="100" height="100"/>
	</g>
	<g>
		<rect x="1320" y="1320" fill="#C1D82F" width="100" height="100"/>
		<rect x="1430" y="1320" fill="#C1D82F" width="100" height="100"/>
		<rect x="1320" y="1430" fill="#C1D82F" width="100" height="100"/>
		<rect x="1430" y="1430" fill="#C1D82F" width="100" height="100"/>
		<rect x="1540" y="1320" fill="#C1D82F" width="100" height="100"/>
		<rect x="1650" y="1320" fill="#C1D82F" width="100" height="100"/>
		<rect x="1540" y="1430" fill="#C1D82F" width="100" height="100"/>
		<rect x="1650" y="1430" fill="#C1D82F" width="100" height="100"/>
		<rect x="1320" y="1540" fill="#C1D82F" width="100" height="100"/>
		<rect x="1430" y="1540" fill="#C1D82F" width="100" height="100"/>
		<rect x="1320" y="1650" fill="#C1D82F" width="100" height="100"/>
		<rect x="1430" y="1650" fill="#C1D82F" width="100" height="100"/>
		<rect x="1540" y="1540" fill="#C1D82F" width="100" height="100"/>
		<rect x="1650" y="1540" fill="#C1D82F" width="100" height="100"/>
		<rect x="1540" y="1650" fill="#C1D82F" width="100" height="100"/>
		<rect x="1650" y="1650" fill="#C1D82F" width="100" height="100"/>
	</g>
</g>
</svg>
