<?xml version="1.0" encoding="utf-8"?>
<!-- Generator: Adobe Illustrator 18.0.0, SVG Export Plug-In . SVG Version: 6.00 Build 0)  -->
<!DOCTYPE svg PUBLIC "-//W3C//DTD SVG 1.1//EN" "http://www.w3.org/Graphics/SVG/1.1/DTD/svg11.dtd">
<svg version="1.1" xmlns="http://www.w3.org/2000/svg" xmlns:xlink="http://www.w3.org/1999/xlink" x="0px" y="0px"
	 viewBox="0 0 460 360" enable-background="new 0 0 460 360" xml:space="preserve">
<g id="Layer_1">
	<g id="Layer_2">
		<defs>
			<path id="SVGID_1_" d="M25,340V25h420L25,340z"/>
		</defs>
		<use xlink:href="#SVGID_1_"  overflow="visible" fill="#00A4E4"/>
		<clipPath id="SVGID_2_">
			<use xlink:href="#SVGID_1_"  overflow="visible"/>
		</clipPath>
		
			<rect x="30" y="30" clip-path="url(#SVGID_2_)" fill="#00A4E4" stroke="#000000" stroke-width="10" stroke-miterlimit="10" width="50" height="50"/>
		
			<rect x="80" y="30" clip-path="url(#SVGID_2_)" fill="#00A4E4" stroke="#000000" stroke-width="10" stroke-miterlimit="10" width="50" height="50"/>
		
			<rect x="130" y="30" clip-path="url(#SVGID_2_)" fill="#00A4E4" stroke="#000000" stroke-width="10" stroke-miterlimit="10" width="50" height="50"/>
		
			<rect x="180" y="30" clip-path="url(#SVGID_2_)" fill="#00A4E4" stroke="#000000" stroke-width="10" stroke-miterlimit="10" width="50" height="50"/>
		
			<rect x="230" y="30" clip-path="url(#SVGID_2_)" fill="#00A4E4" stroke="#000000" stroke-width="10" stroke-miterlimit="10" width="50" height="50"/>
		
			<rect x="280" y="30" clip-path="url(#SVGID_2_)" fill="#00A4E4" stroke="#000000" stroke-width="10" stroke-miterlimit="10" width="50" height="50"/>
		
			<rect x="330" y="30" clip-path="url(#SVGID_2_)" fill="#00A4E4" stroke="#000000" stroke-width="10" stroke-miterlimit="10" width="50" height="50"/>
		
			<rect x="380" y="30" clip-path="url(#SVGID_2_)" fill="#00A4E4" stroke="#000000" stroke-width="10" stroke-miterlimit="10" width="50" height="50"/>
		
			<rect x="30" y="80" clip-path="url(#SVGID_2_)" fill="#00A4E4" stroke="#000000" stroke-width="10" stroke-miterlimit="10" width="50" height="50"/>
		
			<rect x="80" y="80" clip-path="url(#SVGID_2_)" fill="#00A4E4" stroke="#000000" stroke-width="10" stroke-miterlimit="10" width="50" height="50"/>
		
			<rect x="130" y="80" clip-path="url(#SVGID_2_)" fill="#00A4E4" stroke="#000000" stroke-width="10" stroke-miterlimit="10" width="50" height="50"/>
		
			<rect x="180" y="80" clip-path="url(#SVGID_2_)" fill="#00A4E4" stroke="#000000" stroke-width="10" stroke-miterlimit="10" width="50" height="50"/>
		
			<rect x="230" y="80" clip-path="url(#SVGID_2_)" fill="#00A4E4" stroke="#000000" stroke-width="10" stroke-miterlimit="10" width="50" height="50"/>
		
			<rect x="280" y="80" clip-path="url(#SVGID_2_)" fill="#00A4E4" stroke="#000000" stroke-width="10" stroke-miterlimit="10" width="50" height="50"/>
		
			<rect x="330" y="80" clip-path="url(#SVGID_2_)" fill="#00A4E4" stroke="#000000" stroke-width="10" stroke-miterlimit="10" width="50" height="50"/>
		
			<rect x="380" y="80" clip-path="url(#SVGID_2_)" fill="#00A4E4" stroke="#000000" stroke-width="10" stroke-miterlimit="10" width="50" height="50"/>
		
			<rect x="30" y="130" clip-path="url(#SVGID_2_)" fill="#00A4E4" stroke="#000000" stroke-width="10" stroke-miterlimit="10" width="50" height="50"/>
		
			<rect x="80" y="130" clip-path="url(#SVGID_2_)" fill="#00A4E4" stroke="#000000" stroke-width="10" stroke-miterlimit="10" width="50" height="50"/>
		
			<rect x="130" y="130" clip-path="url(#SVGID_2_)" fill="#00A4E4" stroke="#000000" stroke-width="10" stroke-miterlimit="10" width="50" height="50"/>
		
			<rect x="180" y="130" clip-path="url(#SVGID_2_)" fill="#00A4E4" stroke="#000000" stroke-width="10" stroke-miterlimit="10" width="50" height="50"/>
		
			<rect x="230" y="130" clip-path="url(#SVGID_2_)" fill="#00A4E4" stroke="#000000" stroke-width="10" stroke-miterlimit="10" width="50" height="50"/>
		
			<rect x="280" y="130" clip-path="url(#SVGID_2_)" fill="#00A4E4" stroke="#000000" stroke-width="10" stroke-miterlimit="10" width="50" height="50"/>
		
			<rect x="330" y="130" clip-path="url(#SVGID_2_)" fill="#00A4E4" stroke="#000000" stroke-width="10" stroke-miterlimit="10" width="50" height="50"/>
		
			<rect x="380" y="130" clip-path="url(#SVGID_2_)" fill="#00A4E4" stroke="#000000" stroke-width="10" stroke-miterlimit="10" width="50" height="50"/>
		
			<rect x="30" y="180" clip-path="url(#SVGID_2_)" fill="#00A4E4" stroke="#000000" stroke-width="10" stroke-miterlimit="10" width="50" height="50"/>
		
			<rect x="80" y="180" clip-path="url(#SVGID_2_)" fill="#00A4E4" stroke="#000000" stroke-width="10" stroke-miterlimit="10" width="50" height="50"/>
		
			<rect x="130" y="180" clip-path="url(#SVGID_2_)" fill="#00A4E4" stroke="#000000" stroke-width="10" stroke-miterlimit="10" width="50" height="50"/>
		
			<rect x="180" y="180" clip-path="url(#SVGID_2_)" fill="#00A4E4" stroke="#000000" stroke-width="10" stroke-miterlimit="10" width="50" height="50"/>
		
			<rect x="230" y="180" clip-path="url(#SVGID_2_)" fill="#00A4E4" stroke="#000000" stroke-width="10" stroke-miterlimit="10" width="50" height="50"/>
		
			<rect x="280" y="180" clip-path="url(#SVGID_2_)" fill="#00A4E4" stroke="#000000" stroke-width="10" stroke-miterlimit="10" width="50" height="50"/>
		
			<rect x="330" y="180" clip-path="url(#SVGID_2_)" fill="#00A4E4" stroke="#000000" stroke-width="10" stroke-miterlimit="10" width="50" height="50"/>
		
			<rect x="380" y="180" clip-path="url(#SVGID_2_)" fill="#00A4E4" stroke="#000000" stroke-width="10" stroke-miterlimit="10" width="50" height="50"/>
		
			<rect x="30" y="230" clip-path="url(#SVGID_2_)" fill="#00A4E4" stroke="#000000" stroke-width="10" stroke-miterlimit="10" width="50" height="50"/>
		
			<rect x="80" y="230" clip-path="url(#SVGID_2_)" fill="#00A4E4" stroke="#000000" stroke-width="10" stroke-miterlimit="10" width="50" height="50"/>
		
			<rect x="130" y="230" clip-path="url(#SVGID_2_)" fill="#00A4E4" stroke="#000000" stroke-width="10" stroke-miterlimit="10" width="50" height="50"/>
		
			<rect x="180" y="230" clip-path="url(#SVGID_2_)" fill="#00A4E4" stroke="#000000" stroke-width="10" stroke-miterlimit="10" width="50" height="50"/>
		
			<rect x="230" y="230" clip-path="url(#SVGID_2_)" fill="#00A4E4" stroke="#000000" stroke-width="10" stroke-miterlimit="10" width="50" height="50"/>
		
			<rect x="280" y="230" clip-path="url(#SVGID_2_)" fill="#00A4E4" stroke="#000000" stroke-width="10" stroke-miterlimit="10" width="50" height="50"/>
		
			<rect x="330" y="230" clip-path="url(#SVGID_2_)" fill="#00A4E4" stroke="#000000" stroke-width="10" stroke-miterlimit="10" width="50" height="50"/>
		
			<rect x="380" y="230" clip-path="url(#SVGID_2_)" fill="#00A4E4" stroke="#000000" stroke-width="10" stroke-miterlimit="10" width="50" height="50"/>
		
			<rect x="30" y="280" clip-path="url(#SVGID_2_)" fill="#00A4E4" stroke="#000000" stroke-width="10" stroke-miterlimit="10" width="50" height="50"/>
		
			<rect x="80" y="280" clip-path="url(#SVGID_2_)" fill="#00A4E4" stroke="#000000" stroke-width="10" stroke-miterlimit="10" width="50" height="50"/>
		
			<rect x="130" y="280" clip-path="url(#SVGID_2_)" fill="#00A4E4" stroke="#000000" stroke-width="10" stroke-miterlimit="10" width="50" height="50"/>
		
			<rect x="180" y="280" clip-path="url(#SVGID_2_)" fill="#00A4E4" stroke="#000000" stroke-width="10" stroke-miterlimit="10" width="50" height="50"/>
		
			<rect x="230" y="280" clip-path="url(#SVGID_2_)" fill="#00A4E4" stroke="#000000" stroke-width="10" stroke-miterlimit="10" width="50" height="50"/>
		
			<rect x="280" y="280" clip-path="url(#SVGID_2_)" fill="#00A4E4" stroke="#000000" stroke-width="10" stroke-miterlimit="10" width="50" height="50"/>
		
			<rect x="330" y="280" clip-path="url(#SVGID_2_)" fill="#00A4E4" stroke="#000000" stroke-width="10" stroke-miterlimit="10" width="50" height="50"/>
		
			<rect x="380" y="280" clip-path="url(#SVGID_2_)" fill="#00A4E4" stroke="#000000" stroke-width="10" stroke-miterlimit="10" width="50" height="50"/>
	</g>
	<polygon fill="none" stroke="#000000" stroke-width="10" stroke-miterlimit="10" points="30,30 30,330 430,30 	"/>
	<circle stroke="#000000" stroke-width="10" stroke-miterlimit="10" cx="30" cy="330" r="25"/>
	<circle stroke="#000000" stroke-width="10" stroke-miterlimit="10" cx="30" cy="30" r="25"/>
	<circle stroke="#000000" stroke-width="10" stroke-miterlimit="10" cx="430" cy="30" r="25"/>
</g>
<g id="Layer_1_copy">
	<g id="Layer_2_copy">
		<defs>
			<path id="SVGID_3_" d="M435,20v315H15L435,20z"/>
		</defs>
		<use xlink:href="#SVGID_3_"  overflow="visible" fill="#00A4E4"/>
		<clipPath id="SVGID_4_">
			<use xlink:href="#SVGID_3_"  overflow="visible"/>
		</clipPath>
		
			<rect x="380" y="280" clip-path="url(#SVGID_4_)" fill="#00A4E4" stroke="#000000" stroke-width="10" stroke-miterlimit="10" width="50" height="50"/>
		
			<rect x="330" y="280" clip-path="url(#SVGID_4_)" fill="#00A4E4" stroke="#000000" stroke-width="10" stroke-miterlimit="10" width="50" height="50"/>
		
			<rect x="280" y="280" clip-path="url(#SVGID_4_)" fill="#00A4E4" stroke="#000000" stroke-width="10" stroke-miterlimit="10" width="50" height="50"/>
		
			<rect x="230" y="280" clip-path="url(#SVGID_4_)" fill="#00A4E4" stroke="#000000" stroke-width="10" stroke-miterlimit="10" width="50" height="50"/>
		
			<rect x="180" y="280" clip-path="url(#SVGID_4_)" fill="#00A4E4" stroke="#000000" stroke-width="10" stroke-miterlimit="10" width="50" height="50"/>
		
			<rect x="130" y="280" clip-path="url(#SVGID_4_)" fill="#00A4E4" stroke="#000000" stroke-width="10" stroke-miterlimit="10" width="50" height="50"/>
		
			<rect x="80" y="280" clip-path="url(#SVGID_4_)" fill="#00A4E4" stroke="#000000" stroke-width="10" stroke-miterlimit="10" width="50" height="50"/>
		
			<rect x="30" y="280" clip-path="url(#SVGID_4_)" fill="#00A4E4" stroke="#000000" stroke-width="10" stroke-miterlimit="10" width="50" height="50"/>
		
			<rect x="380" y="230" clip-path="url(#SVGID_4_)" fill="#00A4E4" stroke="#000000" stroke-width="10" stroke-miterlimit="10" width="50" height="50"/>
		
			<rect x="330" y="230" clip-path="url(#SVGID_4_)" fill="#00A4E4" stroke="#000000" stroke-width="10" stroke-miterlimit="10" width="50" height="50"/>
		
			<rect x="280" y="230" clip-path="url(#SVGID_4_)" fill="#00A4E4" stroke="#000000" stroke-width="10" stroke-miterlimit="10" width="50" height="50"/>
		
			<rect x="230" y="230" clip-path="url(#SVGID_4_)" fill="#00A4E4" stroke="#000000" stroke-width="10" stroke-miterlimit="10" width="50" height="50"/>
		
			<rect x="180" y="230" clip-path="url(#SVGID_4_)" fill="#00A4E4" stroke="#000000" stroke-width="10" stroke-miterlimit="10" width="50" height="50"/>
		
			<rect x="130" y="230" clip-path="url(#SVGID_4_)" fill="#00A4E4" stroke="#000000" stroke-width="10" stroke-miterlimit="10" width="50" height="50"/>
		
			<rect x="80" y="230" clip-path="url(#SVGID_4_)" fill="#00A4E4" stroke="#000000" stroke-width="10" stroke-miterlimit="10" width="50" height="50"/>
		
			<rect x="30" y="230" clip-path="url(#SVGID_4_)" fill="#00A4E4" stroke="#000000" stroke-width="10" stroke-miterlimit="10" width="50" height="50"/>
		
			<rect x="380" y="180" clip-path="url(#SVGID_4_)" fill="#00A4E4" stroke="#000000" stroke-width="10" stroke-miterlimit="10" width="50" height="50"/>
		
			<rect x="330" y="180" clip-path="url(#SVGID_4_)" fill="#00A4E4" stroke="#000000" stroke-width="10" stroke-miterlimit="10" width="50" height="50"/>
		
			<rect x="280" y="180" clip-path="url(#SVGID_4_)" fill="#00A4E4" stroke="#000000" stroke-width="10" stroke-miterlimit="10" width="50" height="50"/>
		
			<rect x="230" y="180" clip-path="url(#SVGID_4_)" fill="#00A4E4" stroke="#000000" stroke-width="10" stroke-miterlimit="10" width="50" height="50"/>
		
			<rect x="180" y="180" clip-path="url(#SVGID_4_)" fill="#00A4E4" stroke="#000000" stroke-width="10" stroke-miterlimit="10" width="50" height="50"/>
		
			<rect x="130" y="180" clip-path="url(#SVGID_4_)" fill="#00A4E4" stroke="#000000" stroke-width="10" stroke-miterlimit="10" width="50" height="50"/>
		
			<rect x="80" y="180" clip-path="url(#SVGID_4_)" fill="#00A4E4" stroke="#000000" stroke-width="10" stroke-miterlimit="10" width="50" height="50"/>
		
			<rect x="30" y="180" clip-path="url(#SVGID_4_)" fill="#00A4E4" stroke="#000000" stroke-width="10" stroke-miterlimit="10" width="50" height="50"/>
		
			<rect x="380" y="130" clip-path="url(#SVGID_4_)" fill="#00A4E4" stroke="#000000" stroke-width="10" stroke-miterlimit="10" width="50" height="50"/>
		
			<rect x="330" y="130" clip-path="url(#SVGID_4_)" fill="#00A4E4" stroke="#000000" stroke-width="10" stroke-miterlimit="10" width="50" height="50"/>
		
			<rect x="280" y="130" clip-path="url(#SVGID_4_)" fill="#00A4E4" stroke="#000000" stroke-width="10" stroke-miterlimit="10" width="50" height="50"/>
		
			<rect x="230" y="130" clip-path="url(#SVGID_4_)" fill="#00A4E4" stroke="#000000" stroke-width="10" stroke-miterlimit="10" width="50" height="50"/>
		
			<rect x="180" y="130" clip-path="url(#SVGID_4_)" fill="#00A4E4" stroke="#000000" stroke-width="10" stroke-miterlimit="10" width="50" height="50"/>
		
			<rect x="130" y="130" clip-path="url(#SVGID_4_)" fill="#00A4E4" stroke="#000000" stroke-width="10" stroke-miterlimit="10" width="50" height="50"/>
		
			<rect x="80" y="130" clip-path="url(#SVGID_4_)" fill="#00A4E4" stroke="#000000" stroke-width="10" stroke-miterlimit="10" width="50" height="50"/>
		
			<rect x="30" y="130" clip-path="url(#SVGID_4_)" fill="#00A4E4" stroke="#000000" stroke-width="10" stroke-miterlimit="10" width="50" height="50"/>
		
			<rect x="380" y="80" clip-path="url(#SVGID_4_)" fill="#00A4E4" stroke="#000000" stroke-width="10" stroke-miterlimit="10" width="50" height="50"/>
		
			<rect x="330" y="80" clip-path="url(#SVGID_4_)" fill="#00A4E4" stroke="#000000" stroke-width="10" stroke-miterlimit="10" width="50" height="50"/>
		
			<rect x="280" y="80" clip-path="url(#SVGID_4_)" fill="#00A4E4" stroke="#000000" stroke-width="10" stroke-miterlimit="10" width="50" height="50"/>
		
			<rect x="230" y="80" clip-path="url(#SVGID_4_)" fill="#00A4E4" stroke="#000000" stroke-width="10" stroke-miterlimit="10" width="50" height="50"/>
		
			<rect x="180" y="80" clip-path="url(#SVGID_4_)" fill="#00A4E4" stroke="#000000" stroke-width="10" stroke-miterlimit="10" width="50" height="50"/>
		
			<rect x="130" y="80" clip-path="url(#SVGID_4_)" fill="#00A4E4" stroke="#000000" stroke-width="10" stroke-miterlimit="10" width="50" height="50"/>
		
			<rect x="80" y="80" clip-path="url(#SVGID_4_)" fill="#00A4E4" stroke="#000000" stroke-width="10" stroke-miterlimit="10" width="50" height="50"/>
		
			<rect x="30" y="80" clip-path="url(#SVGID_4_)" fill="#00A4E4" stroke="#000000" stroke-width="10" stroke-miterlimit="10" width="50" height="50"/>
		
			<rect x="380" y="30" clip-path="url(#SVGID_4_)" fill="#00A4E4" stroke="#000000" stroke-width="10" stroke-miterlimit="10" width="50" height="50"/>
		
			<rect x="330" y="30" clip-path="url(#SVGID_4_)" fill="#00A4E4" stroke="#000000" stroke-width="10" stroke-miterlimit="10" width="50" height="50"/>
		
			<rect x="280" y="30" clip-path="url(#SVGID_4_)" fill="#00A4E4" stroke="#000000" stroke-width="10" stroke-miterlimit="10" width="50" height="50"/>
		
			<rect x="230" y="30" clip-path="url(#SVGID_4_)" fill="#00A4E4" stroke="#000000" stroke-width="10" stroke-miterlimit="10" width="50" height="50"/>
		
			<rect x="180" y="30" clip-path="url(#SVGID_4_)" fill="#00A4E4" stroke="#000000" stroke-width="10" stroke-miterlimit="10" width="50" height="50"/>
		
			<rect x="130" y="30" clip-path="url(#SVGID_4_)" fill="#00A4E4" stroke="#000000" stroke-width="10" stroke-miterlimit="10" width="50" height="50"/>
		
			<rect x="80" y="30" clip-path="url(#SVGID_4_)" fill="#00A4E4" stroke="#000000" stroke-width="10" stroke-miterlimit="10" width="50" height="50"/>
		
			<rect x="30" y="30" clip-path="url(#SVGID_4_)" fill="#00A4E4" stroke="#000000" stroke-width="10" stroke-miterlimit="10" width="50" height="50"/>
	</g>
	<polygon fill="none" stroke="#000000" stroke-width="10" stroke-miterlimit="10" points="430,330 430,30 30,330 	"/>
	<circle stroke="#000000" stroke-width="10" stroke-miterlimit="10" cx="430" cy="30" r="25"/>
	<circle stroke="#000000" stroke-width="10" stroke-miterlimit="10" cx="430" cy="330" r="25"/>
	<circle stroke="#000000" stroke-width="10" stroke-miterlimit="10" cx="30" cy="330" r="25"/>
</g>
</svg>
